<?xml version="1.0" encoding="iso-8859-1"?>
<!-- Generator: Adobe Illustrator 25.4.1, SVG Export Plug-In . SVG Version: 6.00 Build 0)  -->
<svg version="1.1" id="Layer_1" xmlns="http://www.w3.org/2000/svg" xmlns:xlink="http://www.w3.org/1999/xlink" x="0px" y="0px"
	 viewBox="0 0 831.959 154.294" style="enable-background:new 0 0 831.959 154.294;" xml:space="preserve">
<g>
	<path d="M0,152.347l1.731-15.791V16.716L0,0.925h36.125l-1.947,15.791v119.84l1.947,15.791H0z"/>
	<path d="M53.432,152.347l1.731-15.791V63.008l-1.731-16.007l30.501-2.812l3.677,28.77h1.73c1.44-9.518,5.263-17.052,11.465-22.605
		c6.199-5.55,13.845-8.328,22.93-8.328c10.671,0,18.962,3.606,24.876,10.816c5.912,7.213,8.869,17.234,8.869,30.068v53.648
		l1.731,15.791h-36.125l1.947-15.791V93.292c0-7.788-1.514-13.661-4.543-17.629c-3.028-3.965-7.284-5.949-12.762-5.949
		c-6.057,0-10.924,2.38-14.601,7.139c-3.677,4.758-5.516,11.322-5.516,19.685v40.019l1.73,15.791H53.432z"/>
	<path d="M202.692,152.347L171.109,59.98l-7.139-15.791h38.721l1.731,15.791l16.44,63.165h1.731l16.224-63.165l1.731-15.791h38.937
		l-7.355,15.791l-31.366,92.368H202.692z"/>
	<path d="M383.966,102.81h-69.438c0.865,7.355,3.819,13.195,8.869,17.522c5.047,4.326,11.823,6.49,20.334,6.49
		c6.777,0,12.942-1.332,18.495-4.002c5.55-2.667,9.984-6.452,13.304-11.357l7.354,25.093c-4.759,5.623-10.924,10.024-18.495,13.195
		c-7.571,3.17-15.899,4.759-24.984,4.759c-8.798,0-16.802-1.336-24.011-4.002c-7.213-2.667-13.341-6.415-18.387-11.249
		c-5.05-4.83-8.943-10.708-11.681-17.63c-2.741-6.922-4.11-14.709-4.11-23.362s1.406-16.474,4.218-23.471
		c2.812-6.994,6.706-12.905,11.681-17.738c4.975-4.83,10.887-8.544,17.738-11.14c6.848-2.596,14.311-3.894,22.389-3.894
		c7.355,0,14.023,1.082,20.009,3.245c5.982,2.163,11.066,5.266,15.25,9.301c4.181,4.039,7.426,8.906,9.734,14.601
		c2.305,5.699,3.461,12.151,3.461,19.36C385.697,93.87,385.119,98.629,383.966,102.81z M355.845,92.644
		c0-6.922-1.768-12.472-5.3-16.656c-3.535-4.182-8.328-6.274-14.385-6.274c-6.49,0-11.718,2.488-15.683,7.463
		c-3.968,4.976-6.023,11.573-6.165,19.794L355.845,92.644z"/>
	<path d="M400.621,152.347l1.731-15.791V63.008l-1.731-16.007l30.501-2.812l3.678,28.77h1.73c1.44-9.518,5.263-17.052,11.466-22.605
		c6.199-5.55,13.845-8.328,22.929-8.328c10.671,0,18.962,3.606,24.876,10.816c5.912,7.213,8.87,17.234,8.87,30.068v53.648
		l1.731,15.791h-36.125l1.946-15.791V93.292c0-7.788-1.514-13.661-4.542-17.629c-3.029-3.965-7.284-5.949-12.762-5.949
		c-6.057,0-10.924,2.38-14.602,7.139c-3.677,4.758-5.515,11.322-5.515,19.685v40.019l1.73,15.791H400.621z"/>
	<path style="fill:#333333;" d="M527.382,152.347l1.514-14.493V15.419l-1.514-14.494h60.136c7.209,0,13.736,1.156,19.577,3.461
		c5.84,2.309,10.85,5.516,15.034,9.626c4.181,4.11,7.426,9.052,9.734,14.818c2.306,5.77,3.461,12.188,3.461,19.253
		c0,7.067-1.155,13.52-3.461,19.36c-2.308,5.84-5.623,10.816-9.95,14.926c-4.326,4.111-9.518,7.284-15.575,9.518
		c-6.057,2.237-12.837,3.353-20.334,3.353h-35.476v42.615l1.298,14.493H527.382z M550.527,76.203h34.395
		c8.653,0,15.538-2.558,20.658-7.68c5.117-5.116,7.68-11.93,7.68-20.441c0-8.507-2.562-15.322-7.68-20.442
		c-5.12-5.117-12.005-7.679-20.658-7.679h-34.395V76.203z"/>
	<path style="fill:#333333;" d="M651.333,152.347l1.515-14.493V59.98l-1.515-14.277l19.469-1.514l3.029,30.068h1.298
		c1.731-9.951,5.587-17.772,11.572-23.471c5.983-5.695,13.52-8.544,22.605-8.544c3.029,0,5.334,0.291,6.922,0.865v18.819
		c-0.723-0.287-1.659-0.503-2.812-0.649c-1.156-0.142-2.309-0.216-3.461-0.216c-11.107,0-19.794,3.785-26.066,11.356
		c-6.273,7.572-9.41,17.488-9.41,29.744v35.908l1.515,14.277H651.333z"/>
	<path style="fill:#333333;" d="M777.014,154.294c-8.22,0-15.721-1.335-22.497-4.002c-6.78-2.667-12.583-6.49-17.414-11.465
		c-4.833-4.976-8.582-10.924-11.248-17.846c-2.671-6.922-4.003-14.564-4.003-22.93c0-8.362,1.332-16.008,4.003-22.929
		c2.666-6.922,6.452-12.834,11.357-17.738c4.901-4.901,10.707-8.724,17.414-11.465c6.705-2.738,14.168-4.11,22.388-4.11
		c8.075,0,15.501,1.372,22.281,4.11c6.777,2.741,12.58,6.564,17.414,11.465c4.83,4.905,8.579,10.816,11.249,17.738
		c2.666,6.921,4.002,14.567,4.002,22.929c0,8.366-1.336,16.008-4.002,22.93c-2.67,6.922-6.418,12.87-11.249,17.846
		c-4.833,4.975-10.599,8.797-17.306,11.465C792.697,152.959,785.235,154.294,777.014,154.294z M777.014,135.691
		c4.901,0,9.373-0.9,13.412-2.705c4.035-1.801,7.497-4.36,10.383-7.679c2.883-3.316,5.116-7.281,6.706-11.898
		c1.585-4.614,2.379-9.734,2.379-15.358c0-5.624-0.794-10.742-2.379-15.358c-1.589-4.614-3.823-8.545-6.706-11.789
		c-2.887-3.245-6.348-5.766-10.383-7.571c-4.039-1.802-8.511-2.704-13.412-2.704c-4.905,0-9.377,0.902-13.412,2.704
		c-4.039,1.805-7.5,4.325-10.383,7.571c-2.886,3.244-5.12,7.176-6.705,11.789c-1.589,4.617-2.38,9.734-2.38,15.358
		c0,5.624,0.791,10.745,2.38,15.358c1.585,4.617,3.82,8.583,6.705,11.898c2.883,3.319,6.344,5.878,10.383,7.679
		C767.638,134.791,772.11,135.691,777.014,135.691z"/>
</g>
</svg>
