<svg width="576" height="462" viewBox="0 0 576 462" fill="none" xmlns="http://www.w3.org/2000/svg">
    <g clip-path="url(#clip0_1395_138)">
        <path d="M429.218 443.245H493.686L502.262 380.548H420.658L429.218 443.245Z" fill="#263238" />
        <path
            d="M462.283 380.638C462.283 380.638 471.341 337.995 454.87 314.891C438.398 291.787 469.726 314.619 473.319 336.243C473.319 336.243 478.709 297.571 462.751 270.375C446.792 243.179 476.626 265.497 479.162 293.539C479.162 293.539 484.054 259.034 476.716 239.645C469.379 220.256 482.136 232.729 487.043 244.87C491.95 257.011 485.533 287.151 485.533 287.151C485.533 287.151 498.321 231.506 510.43 235.93C522.538 240.355 492.312 276.823 488.145 295.789C488.145 295.789 502.413 270.269 513.238 275.584C524.063 280.9 496.479 283.542 483.842 321.596L479.404 339.444C479.404 339.444 492.539 314.257 501.114 322.2C509.69 330.142 475.659 343.854 467.748 382.028L462.283 380.638Z"
            fill="#1B70B1" />
        <path
            d="M464.049 383.1C464.049 383.1 465.951 329.327 492.509 306.54C519.066 283.754 474.799 301.799 464.049 326.639C464.049 326.639 469.107 278.71 496.313 250.865C523.52 223.019 481.125 240.898 469.741 273.727C469.741 273.727 474.165 230.947 488.719 209.912C503.273 188.877 484.295 200.006 474.799 213.098C465.302 226.19 464.049 264.214 464.049 264.214C464.049 264.214 465.317 193.755 449.495 195.461C433.672 197.167 458.991 249.823 458.357 273.787C458.357 273.787 448.861 238.965 434.321 242.076C419.782 245.187 452.031 256.603 455.821 305.951V328.602C455.821 328.602 447.607 294.52 434.955 301.421C422.303 308.322 458.991 334.959 457.089 383.039L464.049 383.1Z"
            fill="#407BFF" />
        <path
            d="M464.049 383.1C464.049 383.1 465.951 329.327 492.509 306.54C519.066 283.754 474.799 301.799 464.049 326.639C464.049 326.639 469.107 278.71 496.313 250.865C523.52 223.019 481.125 240.898 469.741 273.727C469.741 273.727 474.165 230.947 488.719 209.912C503.273 188.877 484.295 200.006 474.799 213.098C465.302 226.19 464.049 264.214 464.049 264.214C464.049 264.214 465.317 193.755 449.495 195.461C433.672 197.167 458.991 249.823 458.357 273.787C458.357 273.787 448.861 238.965 434.321 242.076C419.782 245.187 452.031 256.603 455.821 305.951V328.602C455.821 328.602 447.607 294.52 434.955 301.421C422.303 308.322 458.991 334.959 457.089 383.039L464.049 383.1Z"
            fill="#2A83C8" />
        <path
            d="M510.339 375.459V381.424C510.339 383.338 509.579 385.174 508.226 386.528C506.872 387.881 505.036 388.642 503.122 388.642H418.997C417.083 388.642 415.247 387.881 413.894 386.528C412.54 385.174 411.78 383.338 411.78 381.424V375.459H510.339Z"
            fill="#263238" />
        <path opacity="0.2"
            d="M510.339 375.459V381.424C510.339 383.338 509.579 385.174 508.226 386.528C506.872 387.881 505.036 388.642 503.122 388.642H418.997C417.083 388.642 415.247 387.881 413.894 386.528C412.54 385.174 411.78 383.338 411.78 381.424V375.459H510.339Z"
            fill="white" />
        <path
            d="M288.008 462C447.07 462 576.015 457.207 576.015 451.294C576.015 445.381 447.07 440.587 288.008 440.587C128.945 440.587 0 445.381 0 451.294C0 457.207 128.945 462 288.008 462Z"
            fill="#DEDEDE" />
        <path d="M70.0392 207.436H80.8493L48.0113 452.305H37.2012L70.0392 207.436Z" fill="#9E765C" />
        <path d="M317.992 207.436H307.182L340.02 452.305H350.83L317.992 207.436Z" fill="#9E765C" />
        <path
            d="M209.121 109.297C210.419 111.276 218.18 129.019 222.09 143.606C224.514 152.482 227.848 161.085 232.04 169.277C232.477 170.454 245.447 172.825 262.235 179.122C279.024 185.419 289.412 189.692 289.412 189.692L273.408 196.004C273.408 196.004 242.276 190.885 231.466 187.729C220.656 184.573 216.776 179.454 212.02 173.535C207.264 167.616 183.908 126.225 183.908 126.225L209.121 109.297Z"
            fill="#EAAD96" />
        <path d="M187.803 433.385H198.779L198.779 312.852H187.803V433.385Z" fill="#445467" />
        <path
            d="M183.364 315.948H203.218V366.942C203.218 369.469 202.214 371.893 200.427 373.68C198.641 375.467 196.218 376.471 193.691 376.471H192.876C190.349 376.471 187.926 375.467 186.139 373.68C184.353 371.893 183.349 369.469 183.349 366.942V315.948H183.364Z"
            fill="#445467" />
        <path
            d="M178.729 324.48H207.883C209.859 324.478 211.791 323.897 213.439 322.807C215.087 321.717 216.378 320.167 217.153 318.349L221.048 309.168C221.699 307.637 221.961 305.969 221.81 304.313C221.659 302.656 221.1 301.063 220.184 299.675C219.267 298.287 218.021 297.148 216.557 296.359C215.093 295.571 213.456 295.157 211.793 295.155H174.773C173.11 295.157 171.474 295.571 170.01 296.359C168.546 297.148 167.3 298.287 166.383 299.675C165.466 301.063 164.908 302.656 164.757 304.313C164.606 305.969 164.868 307.637 165.518 309.168L169.414 318.349C170.19 320.175 171.488 321.731 173.145 322.822C174.803 323.912 176.745 324.489 178.729 324.48Z"
            fill="#2C3642" />
        <path
            d="M138.538 444.438C138.538 446 139.001 447.527 139.869 448.826C140.737 450.125 141.97 451.137 143.413 451.734C144.856 452.332 146.443 452.489 147.975 452.184C149.507 451.879 150.914 451.127 152.018 450.023C153.122 448.918 153.874 447.511 154.179 445.979C154.484 444.447 154.327 442.859 153.73 441.416C153.132 439.973 152.12 438.739 150.821 437.871C149.523 437.004 147.996 436.541 146.435 436.541C144.34 436.541 142.332 437.373 140.851 438.854C139.37 440.335 138.538 442.344 138.538 444.438Z"
            fill="#445467" />
        <path
            d="M248.134 444.438C248.134 446 247.671 447.527 246.803 448.826C245.936 450.125 244.702 451.137 243.259 451.734C241.817 452.332 240.229 452.489 238.697 452.184C237.166 451.879 235.759 451.127 234.654 450.023C233.55 448.918 232.798 447.511 232.493 445.979C232.189 444.447 232.345 442.859 232.943 441.416C233.54 439.973 234.552 438.739 235.851 437.871C237.149 437.004 238.676 436.541 240.238 436.541C242.332 436.541 244.34 437.373 245.821 438.854C247.302 440.335 248.134 442.344 248.134 444.438Z"
            fill="#445467" />
        <path
            d="M193.359 430.576C177.827 430.475 162.487 434.007 148.563 440.889V445.284H236.841V440.24C223.258 433.789 208.395 430.486 193.359 430.576Z"
            fill="#445467" />
        <path
            d="M92.7917 101.234C112.042 87.5226 142.887 91.1165 142.887 91.1165L172.977 104.42C172.977 104.42 198.643 144.255 205.392 167.132C206.066 177.351 206.801 187.563 207.596 197.771C210.178 230.993 213.394 275.826 217.47 308.911L217.561 309.621C174.894 309.304 128.242 302.962 128.242 302.962C114.427 302.962 100.446 290.685 97.5475 278.68C95.2074 268.985 89.0776 189.98 86.1033 140.42C84.6237 115.912 84.1859 107.35 92.7917 101.234Z"
            fill="#445467" />
        <path
            d="M123.44 284.267C116.224 282.047 111.181 272.187 109.626 256.844C108.675 247.376 101.443 189.451 98.5742 147.169C97.3513 129.381 94.0448 112 96.9436 105.975C107.875 82.7658 178.336 86.7825 195.714 101.022C213.092 115.262 213.665 144.814 215.477 169.775C216.866 188.968 226.046 268.215 227.827 289.069C190.626 291.123 158.317 294.988 123.44 284.267Z"
            fill="#2C3642" />
        <path
            d="M101.428 284.629C101.428 300.032 141.905 312.505 191.849 312.505C241.793 312.505 282.27 300.032 282.27 284.629C282.27 269.227 242.155 271.431 192.226 271.431C142.298 271.431 101.428 269.242 101.428 284.629Z"
            fill="#2C3642" />
        <path
            d="M112.947 273.153C113.038 273.938 134.9 288.389 139.686 290.141C153.81 295.304 168.631 298.308 183.651 299.05C200.243 299.897 216.879 299.078 233.308 296.604C246.549 294.596 260.711 292.905 269.301 280.356C270.448 278.663 271.458 276.88 272.321 275.026C278.677 277.019 282.285 280.039 282.285 284.629C282.285 300.032 241.808 312.505 191.864 312.505C141.92 312.505 101.443 300.032 101.443 284.629C101.428 278.408 101.654 274.935 112.947 273.153Z"
            fill="#445467" />
        <path
            d="M324.242 424.354C324.242 424.354 327.911 438.156 328.349 441.478C328.5 442.581 328.349 444.861 328.5 446.008C328.711 447.518 329.481 451.641 330.886 452.32H350.15L377.674 453.423L378.429 448.983C378.067 445.963 373.22 444.196 370.397 443.139C364.478 440.95 354.318 435.589 354.318 435.589L348.278 414.297L324.242 424.354Z"
            fill="#393A45" />
        <path
            d="M378.429 453.393C378.429 453.393 379.41 450.508 378.429 448.953L328.908 448.228C328.908 448.228 329.21 451.475 330.886 452.275L378.429 453.393Z"
            fill="white" />
        <path
            d="M325.994 297.933C323.518 285.853 316.497 272.715 304.721 266.222C282.602 254.021 250.444 249.4 246.579 247.135L215.356 240.143L187.123 241.155C187.123 241.155 188.135 278.786 200.077 290.141C202.931 292.859 211.265 298.054 222.724 299.201C247.047 301.723 282.482 300.138 282.482 300.138C282.482 300.138 291.978 329.176 302.366 362.548C316.663 408.514 321.993 426.967 321.993 426.967L353.412 419.281C353.412 419.281 336.094 347.402 325.994 297.933Z"
            fill="#3089CD" />
        <path d="M253.901 299.126L291.389 301.421" stroke="#1B70B1" stroke-miterlimit="10" />
        <path
            d="M271.4 424.354C271.4 424.354 275.069 438.156 275.506 441.478C275.657 442.581 275.506 444.861 275.657 446.008C275.869 447.518 276.639 451.641 278.043 452.32H297.308L324.831 453.423L325.586 448.983C325.239 445.963 320.377 444.196 317.554 443.139C311.636 440.95 301.475 435.589 301.475 435.589L295.436 414.297L271.4 424.354Z"
            fill="#393A45" />
        <path
            d="M325.571 453.393C325.571 453.393 326.552 450.508 325.571 448.953L276.05 448.228C276.05 448.228 276.367 451.475 278.028 452.275L325.571 453.393Z"
            fill="white" />
        <path
            d="M265.965 292.905C255.139 259.125 192.121 250.623 186.202 247.09L154.98 240.098L126.732 241.11C126.732 241.11 126.264 276.309 138.206 287.665C141.06 290.368 149.394 295.562 160.853 296.725C185.176 299.247 222.422 300.772 222.422 300.772C222.422 300.772 229.126 327.198 241.204 360.026C256.423 401.734 269.06 430.999 269.06 430.999L299.15 423.298C299.15 423.298 278.526 332.166 265.965 292.905Z"
            fill="#3089CD" />
        <path
            d="M284.444 359.347C278.405 335.79 271.43 310.074 265.965 292.904C258.416 269.574 226.121 258.264 204.848 252.36"
            stroke="#1B70B1" stroke-miterlimit="10" />
        <path d="M193.51 299.126L231.013 301.421" stroke="#1B70B1" stroke-miterlimit="10" />
        <path
            d="M155.976 57.9407C156.406 63.1764 155.669 68.4422 153.817 73.3583C152.625 77.2391 138.538 86.0276 138.538 86.0276C138.538 86.0276 182.171 123.779 197.662 122.601C213.152 121.423 188.603 81.8297 188.603 81.8297C188.603 81.8297 181.884 78.3415 180.224 74.2794C178.563 70.2174 177.204 60.8702 177.204 60.8702L157.743 39.2161L155.976 57.9407Z"
            fill="#EAAD96" />
        <path
            d="M159.675 72.6033C157.962 71.8062 156.358 70.7911 154.904 69.5832C155.942 65.785 156.284 61.8306 155.916 57.9105L157.743 39.2161L177.219 60.9155C177.219 60.9155 178.593 70.2627 180.239 74.3247C180.467 74.8561 180.751 75.3622 181.084 75.8348C179.749 76.3103 178.367 76.6443 176.962 76.8314C171.021 76.2963 165.193 74.871 159.675 72.6033Z"
            fill="#D38576" />
        <path
            d="M198.673 87.5376C198.673 87.5376 209.03 92.2037 214.647 105.809C218.965 116.289 232.009 156.079 232.764 157.559C233.519 159.038 236.463 161.621 241.264 163.84C246.066 166.06 282.663 180.451 285.26 184.981C285.26 184.981 284.414 194.283 273.559 196.095C273.559 196.095 229.775 187.563 222.422 183.501C215.07 179.439 195.442 141.356 188.784 127.629C182.126 113.903 198.673 87.5376 198.673 87.5376Z"
            fill="#027D6A" />
        <path
            d="M149.635 78.115C149.635 78.115 129.766 83.7173 122.58 89.3951C114.502 95.7826 116.918 116.984 117.854 127.146C118.413 133.187 118.141 201.728 118.141 234.36C118.141 254.564 129.857 252.194 135.806 250.971C147.884 248.6 166.152 250.97 184.738 249.098C201.044 247.497 212.458 245.67 219.342 240.612C225.623 236.081 216.912 215.046 214.903 192.532C211.884 158.208 210.721 122.193 209.514 116.078C207.506 105.945 198.673 87.3867 198.673 87.3867L187.244 80.8029C186.594 82.0777 185.657 83.1843 184.507 84.0359C183.357 84.8874 182.025 85.4606 180.616 85.7105C159.026 91.0863 149.635 78.115 149.635 78.115Z"
            fill="#027D6A" />
        <path
            d="M214.904 192.652C211.884 158.329 210.721 122.314 209.514 116.198C207.888 109.661 205.691 103.279 202.946 97.1265"
            stroke="#3B6759" stroke-width="0.75" stroke-linejoin="round" />
        <path
            d="M191.683 11.28C194.31 15.0099 196.001 22.8621 195.744 27.8906C195.488 32.9191 189.781 40.122 189.781 40.122L181.069 11.5518L191.683 11.28Z"
            fill="#393A45" />
        <path
            d="M189.871 17.3202C194.763 24.0702 194.401 31.6808 193.933 36.4979C193.404 40.5073 193.404 44.5688 193.933 48.5783C194.778 56.6269 189.297 66.1855 185.961 69.9002C179.922 76.6501 164.658 72.1502 159.555 64.5244C156.535 59.8886 150.873 49.0917 149.681 45.0448C148.488 40.9978 144.457 27.4678 149.454 21.2464C154.452 15.025 164.265 14.0283 174.411 14.8287C184.557 15.629 187.833 14.4662 189.871 17.3202Z"
            fill="#EAAD96" />
        <path
            d="M153.002 34.6858C153.002 34.6858 156.716 33.4022 157.969 25.6255C158.936 19.5853 159.238 16.5652 159.238 16.5652C159.238 16.5652 164.371 17.5165 167.572 18.196C172.08 19.1274 176.709 19.3262 181.28 18.785C197.239 17.0031 198.552 5.84383 198.552 5.84383C198.552 5.84383 193.948 6.00993 182.639 2.0838C173.952 -0.670462 164.634 -0.723126 155.916 1.93279C154.119 2.50055 152.532 3.59366 151.362 5.07123C150.191 6.5488 149.49 8.34313 149.348 10.223C149.348 10.223 143.838 9.09044 140.667 15.2967C137.648 21.337 138.886 26.7127 143.204 36.2562C145.877 42.0553 150.046 47.038 155.282 50.6923L153.002 34.6858Z"
            fill="#393A45" />
        <path
            d="M194.31 54.8753C194.31 53.3652 194.068 51.1757 194.068 51.1757C193.374 55.9323 192.393 55.8115 192.136 55.5548C189.403 52.8216 184.783 52.0968 179.756 52.7461C168.432 54.2562 167.224 58.4692 164.839 58.439C163.435 58.439 162.227 59.043 160.219 56.929C158.83 55.4189 158.709 52.1119 158.12 49.3787C156.611 42.6892 153.802 32.6021 153.802 32.6021L144.864 36.951C149.635 46.57 151.492 49.5599 152.413 53.1085C154.769 62.3953 157.652 69.6285 168.221 73.4036C176.404 76.318 182.035 77.2391 187.365 73.1469C193.676 68.2241 194.401 59.0581 194.31 54.8753Z"
            fill="#393A45" />
        <path
            d="M174.094 57.5783C174.23 57.8954 174.577 58.6958 174.713 58.9525C175.139 59.7787 175.724 60.5125 176.434 61.1119C177.769 62.1882 179.46 62.7235 181.172 62.6116C182.883 62.4998 184.49 61.7489 185.674 60.5078C186.229 59.8286 186.612 59.0258 186.791 58.1673C186.919 57.6015 186.995 57.0253 187.018 56.4458C187.018 56.4458 183.877 56.9139 181.582 57.1102C176.993 57.4877 174.094 57.5783 174.094 57.5783Z"
            fill="#D16A54" />
        <path
            d="M182.322 58.0615C179.582 58.5081 176.778 58.3431 174.109 57.5783C174.109 57.5783 177.008 57.4877 181.658 57.1102C183.953 56.9139 187.093 56.4458 187.093 56.4458C187.093 56.4458 186.248 57.6387 182.383 58.0615"
            fill="#F4F4F4" />
        <path
            d="M174.049 30.1558C173.96 29.1018 173.467 28.1227 172.675 27.4226C168.106 27.4208 163.709 29.1657 160.385 32.3001C160.385 32.3001 161.563 32.3001 162.031 32.2095C163.193 31.9981 169.7 29.3102 174.049 30.1558Z"
            fill="#393A45" />
        <path
            d="M182.322 29.597C182.139 28.6422 182.328 27.6534 182.851 26.8336C182.851 26.8336 186.353 25.4897 192.498 28.7514C192.498 28.7514 192.242 29.5517 191.064 29.3403C189.886 29.1289 185.342 27.5282 182.322 29.597Z"
            fill="#393A45" />
        <path
            d="M152.232 40.3033C148.533 36.7698 143.173 38.0836 144.185 43.6104C145.076 48.216 147.31 48.8955 151.07 52.3837C153.606 54.7394 155.599 53.2747 155.599 51.9609C155.554 48.2764 154.527 42.508 152.232 40.3033Z"
            fill="#EAAD96" />
        <path
            d="M153.5 48.5331C153.826 49.3174 154.194 50.0836 154.602 50.8284C154.874 50.4962 154.24 49.7411 153.772 48.0801C153.108 45.7244 153.878 48.0801 152.912 45.7848C152.267 44.031 151.056 42.5429 149.469 41.5567C149.167 41.3153 148.792 41.1838 148.405 41.1838C148.018 41.1838 147.643 41.3153 147.34 41.5567C150.003 43.2964 152.134 45.7364 153.5 48.6086"
            fill="#D38576" />
        <path
            d="M178.472 34.4895C178.694 35.9936 179.207 37.44 179.982 38.7478C180.701 40.0694 181.524 41.3318 182.443 42.523C182.926 43.0877 183.351 43.6999 183.711 44.3501C183.894 44.5914 183.992 44.8857 183.992 45.1882C183.992 45.4907 183.894 45.785 183.711 46.0263C182.621 46.9963 181.283 47.6445 179.846 47.8987L180.027 48.7595C180.907 48.6052 181.767 48.3572 182.594 48.0196C183.468 47.7152 184.252 47.1959 184.874 46.5095C185.183 46.1315 185.344 45.6537 185.327 45.1656C185.29 44.729 185.145 44.3085 184.904 43.9424C184.468 43.267 183.962 42.6394 183.394 42.07C182.302 40.9738 181.292 39.7977 180.375 38.5515C179.504 37.3232 178.85 35.9543 178.442 34.5046"
            fill="#D38576" />
        <path
            d="M169.187 36.362C169.293 37.6607 170.033 38.6573 170.863 38.612C171.693 38.5667 172.252 37.4493 172.161 36.1506C172.071 34.852 171.316 33.8554 170.501 33.9007C169.685 33.946 169.096 35.0634 169.187 36.362Z"
            fill="#302426" />
        <path
            d="M185.342 35.2598C185.447 36.5584 186.187 37.5701 187.018 37.5097C187.848 37.4493 188.407 36.3621 188.316 35.0484C188.225 33.7346 187.471 32.7531 186.655 32.7984C185.84 32.8437 185.342 33.9611 185.342 35.2598Z"
            fill="#302426" />
        <path
            d="M155.146 191.852C156.565 194.117 158.951 196.05 160.913 195.869C162.876 195.687 165.171 192.426 166.59 187.729C168.009 183.033 169.006 180.738 165.262 179.243C161.517 177.748 148.971 181.961 155.146 191.852Z"
            fill="#3B6759" />
        <path
            d="M214.798 182.475C210.268 177.944 202.191 176.434 197.375 176.223C192.559 176.011 179.801 179.379 172.252 180.753C164.703 182.127 149.937 178.684 149.937 178.684L142.705 191.731C142.705 191.731 162.559 191.097 166.968 193.498C171.376 195.899 178.17 196.926 183.5 196.971C188.829 197.016 192.226 191.308 194.159 191.006C197.145 190.9 200.106 191.593 202.735 193.015C203.888 193.842 205.215 194.395 206.615 194.63C207.521 194.63 207.445 192.758 205.754 191.958C206.132 192.199 207.143 192.773 207.506 193.03C207.868 193.286 208.668 193.981 209.015 194.193C211.22 195.703 212.186 195.159 211.174 193.09C210.594 192.03 209.821 191.088 208.895 190.312C207.258 188.975 205.516 187.774 203.686 186.718C203.686 186.718 209.876 189.194 211.627 191.761C213.379 194.328 215.915 195.416 216.957 194.781C217.999 194.147 213.711 188.258 211.839 186.597C210.119 185.235 208.28 184.032 206.343 183.003C207.885 183.361 209.399 183.83 210.872 184.407C212.684 185.177 218.316 190.085 220.263 189.964C222.211 189.844 219.312 187.005 214.798 182.475Z"
            fill="#EAAD96" />
        <path
            d="M125.886 87.5376C124.21 88.655 111.906 93.4872 107.225 105.87C104.009 114.341 99.8424 142.292 98.3326 155.701C95.8565 177.733 97.4267 181.886 100.28 186.627C103.134 191.369 160.868 195.838 160.868 195.838C160.868 195.838 156.339 195.159 159.162 187.141C161.789 179.696 165.201 179.213 165.201 179.213L126.958 167.042C126.958 167.042 134.054 138.698 137.285 127.071C143.188 106.051 125.886 87.5376 125.886 87.5376Z"
            fill="#027D6A" />
        <path
            d="M100.28 186.657C103.119 191.399 160.868 195.869 160.868 195.869C160.868 195.869 156.339 195.189 159.162 187.171C161.789 179.726 165.201 179.243 165.201 179.243L126.958 167.072C126.958 167.072 134.054 138.728 137.285 127.101C140.214 116.531 137.361 106.685 133.767 99.4216"
            stroke="#3B6759" stroke-width="0.75" stroke-linejoin="round" />
        <path
            d="M165.216 179.243L126.973 167.057C126.973 167.057 134.084 138.728 137.315 127.101C139.236 119.79 138.829 112.063 136.153 104.994"
            stroke="#3B6759" stroke-width="0.75" stroke-linejoin="round" />
        <path d="M128.559 167.087C128.559 167.087 119.5 166.528 114.442 173.127" stroke="#3B6759"
            stroke-width="0.75" stroke-linejoin="round" />
        <path
            d="M214.511 194.147H238.305L262.1 110.883H247.787C246.685 110.882 245.61 111.223 244.709 111.858C243.809 112.494 243.128 113.393 242.759 114.432L214.511 194.147Z"
            fill="#445467" />
        <path
            d="M219.388 192.833L310.549 194.147L333.603 113.45C333.687 113.151 333.7 112.836 333.642 112.531C333.585 112.226 333.458 111.938 333.271 111.689C333.084 111.441 332.842 111.239 332.565 111.099C332.287 110.96 331.981 110.886 331.671 110.883H249.025C248.598 110.885 248.183 111.022 247.838 111.274C247.494 111.526 247.238 111.881 247.107 112.287L219.388 192.833Z"
            fill="#2C3642" />
        <path
            d="M307.952 198.481H218.995V192.275H311.485V194.932C311.485 195.871 311.113 196.771 310.451 197.436C309.789 198.101 308.89 198.477 307.952 198.481Z"
            fill="#4D5E73" />
        <path
            d="M218.98 198.481H170.485C169.897 198.481 169.332 198.247 168.916 197.831C168.5 197.415 168.266 196.85 168.266 196.261V194.479C168.266 193.891 168.5 193.326 168.916 192.91C169.332 192.493 169.897 192.26 170.485 192.26H218.98C219.661 192.26 220.313 192.53 220.795 193.011C221.276 193.493 221.547 194.146 221.547 194.827V195.989C221.527 196.657 221.248 197.291 220.769 197.756C220.289 198.221 219.648 198.481 218.98 198.481Z"
            fill="#3A495A" />
        <path d="M121.463 207.436H132.273L99.4348 452.305H88.6247L121.463 207.436Z" fill="#9E765C" />
        <path d="M369.415 207.436H358.605L391.443 452.305H402.253L369.415 207.436Z" fill="#9E765C" />
        <path d="M411.539 198.375H71.6547V215.514H411.539V198.375Z" fill="#B48669" />
        <path d="M100.054 198.375H41.5042V215.514H100.054V198.375Z" fill="#9E765C" />
    </g>
    <defs>
        <clipPath id="clip0_1395_138">
            <rect width="576" height="462" fill="white" />
        </clipPath>
    </defs>
</svg>
